<?xml version="1.0" encoding="UTF-8" standalone="no"?>
<!DOCTYPE svg PUBLIC "-//W3C//DTD SVG 1.1//EN"
 "http://www.w3.org/Graphics/SVG/1.1/DTD/svg11.dtd">
<!-- Generated by graphviz version 2.38.0 (20140413.2041)
 -->
<!-- Title: GRM Pages: 1 -->
<svg width="199pt" height="294pt"
 viewBox="0.00 0.00 199.00 293.84" xmlns="http://www.w3.org/2000/svg" xmlns:xlink="http://www.w3.org/1999/xlink">
<g id="graph0" class="graph" transform="scale(1 1) rotate(0) translate(4 289.836)">
<title>GRM</title>
<polygon fill="white" stroke="none" points="-4,4 -4,-289.836 195,-289.836 195,4 -4,4"/>
<!-- S0_0 -->
<g id="node1" class="node"><title>S0_0</title>
<ellipse fill="none" stroke="black" cx="18" cy="-140.836" rx="18" ry="18"/>
<text text-anchor="middle" x="18" y="-137.136" font-family="Times New Roman,serif" font-size="14.00">S</text>
</g>
<!-- S0_1 -->
<g id="node2" class="node"><title>S0_1</title>
<ellipse fill="none" stroke="black" cx="169" cy="-140.836" rx="18" ry="18"/>
<ellipse fill="none" stroke="black" cx="169" cy="-140.836" rx="22" ry="22"/>
<text text-anchor="middle" x="169" y="-137.136" font-family="Times New Roman,serif" font-size="14.00">F</text>
</g>
<!-- S0_0&#45;&gt;S0_1 -->
<g id="edge1" class="edge"><title>S0_0&#45;&gt;S0_1</title>
<path fill="none" stroke="black" d="M20.4095,-159.081C23.0292,-187.538 29.7307,-240.423 44,-251.836 76.9728,-278.209 105.583,-277.644 139,-251.836 151.425,-242.24 159.544,-202.373 163.949,-173.153"/>
<polygon fill="black" stroke="black" points="167.458,-173.34 165.405,-162.946 160.528,-172.351 167.458,-173.34"/>
<text text-anchor="middle" x="91.5" y="-274.636" font-family="Times New Roman,serif" font-size="14.00">_C001 : C001 | 0</text>
</g>
<!-- S0_0&#45;&gt;S0_1 -->
<g id="edge2" class="edge"><title>S0_0&#45;&gt;S0_1</title>
<path fill="none" stroke="black" d="M19.5834,-159.002C21.2229,-176.292 26.6697,-201.453 44,-213.836 78.3533,-238.384 104.065,-237.549 139,-213.836 152.568,-204.627 159.788,-187.962 163.63,-172.878"/>
<polygon fill="black" stroke="black" points="167.117,-173.31 165.787,-162.799 160.272,-171.846 167.117,-173.31"/>
<text text-anchor="middle" x="91.5" y="-235.636" font-family="Times New Roman,serif" font-size="14.00">_C002 : C002 | 0</text>
</g>
<!-- S0_0&#45;&gt;S0_1 -->
<g id="edge3" class="edge"><title>S0_0&#45;&gt;S0_1</title>
<path fill="none" stroke="black" d="M26.3423,-157.234C30.4429,-164.315 36.298,-171.873 44,-175.836 81.5426,-195.156 100.789,-193.799 139,-175.836 143.294,-173.818 147.17,-170.817 150.589,-167.406"/>
<polygon fill="black" stroke="black" points="153.499,-169.388 157.325,-159.508 148.173,-164.846 153.499,-169.388"/>
<text text-anchor="middle" x="91.5" y="-192.636" font-family="Times New Roman,serif" font-size="14.00">_C005 : C005 | 0</text>
</g>
<!-- S0_0&#45;&gt;S0_1 -->
<g id="edge4" class="edge"><title>S0_0&#45;&gt;S0_1</title>
<path fill="none" stroke="black" d="M36.0922,-140.836C60.5716,-140.836 106.033,-140.836 136.652,-140.836"/>
<polygon fill="black" stroke="black" points="136.805,-144.336 146.805,-140.836 136.805,-137.336 136.805,-144.336"/>
<text text-anchor="middle" x="91.5" y="-144.636" font-family="Times New Roman,serif" font-size="14.00">_C010 : C010 | 0</text>
</g>
<!-- S0_0&#45;&gt;S0_1 -->
<g id="edge5" class="edge"><title>S0_0&#45;&gt;S0_1</title>
<path fill="none" stroke="black" d="M31.5538,-128.808C35.2778,-125.968 39.557,-123.333 44,-121.836 84.0128,-108.357 98.5408,-109.763 139,-121.836 140.067,-122.155 141.131,-122.526 142.188,-122.942"/>
<polygon fill="black" stroke="black" points="140.842,-126.185 151.34,-127.613 144.024,-119.95 140.842,-126.185"/>
<text text-anchor="middle" x="91.5" y="-125.636" font-family="Times New Roman,serif" font-size="14.00">_C020 : C020 | 0</text>
</g>
<!-- S0_0&#45;&gt;S0_1 -->
<g id="edge6" class="edge"><title>S0_0&#45;&gt;S0_1</title>
<path fill="none" stroke="black" d="M23.1281,-123.452C26.7021,-112.597 33.0749,-99.4643 44,-92.8364 80.0986,-70.9364 102.226,-72.0897 139,-92.8364 146.274,-96.9402 151.929,-103.683 156.234,-110.836"/>
<polygon fill="black" stroke="black" points="153.258,-112.698 160.985,-119.948 159.465,-109.462 153.258,-112.698"/>
<text text-anchor="middle" x="91.5" y="-96.6364" font-family="Times New Roman,serif" font-size="14.00">_C050 : C050 | 0</text>
</g>
<!-- S0_0&#45;&gt;S0_1 -->
<g id="edge7" class="edge"><title>S0_0&#45;&gt;S0_1</title>
<path fill="none" stroke="black" d="M18.6625,-122.799C19.39,-103.213 23.9492,-72.7376 44,-57.8364 77.8885,-32.6514 104.571,-33.3957 139,-57.8364 155.203,-69.3383 162.426,-90.6042 165.612,-108.73"/>
<polygon fill="black" stroke="black" points="162.152,-109.262 167.029,-118.668 169.082,-108.274 162.152,-109.262"/>
<text text-anchor="middle" x="91.5" y="-61.6364" font-family="Times New Roman,serif" font-size="14.00">_C100 : C100 | 0</text>
</g>
<!-- S0_0&#45;&gt;S0_1 -->
<g id="edge8" class="edge"><title>S0_0&#45;&gt;S0_1</title>
<path fill="none" stroke="black" d="M20.0112,-122.941C22.1466,-92.4894 28.283,-32.638 44,-19.8364 76.737,6.82825 105.847,6.30956 139,-19.8364 152.791,-30.7129 160.763,-76.596 164.744,-108.623"/>
<polygon fill="black" stroke="black" points="161.306,-109.357 165.944,-118.882 168.259,-108.543 161.306,-109.357"/>
<text text-anchor="middle" x="91.5" y="-23.6364" font-family="Times New Roman,serif" font-size="14.00">_C200 : C200 | 0</text>
</g>
</g>
</svg>
