<?xml version="1.0" encoding="UTF-8" standalone="no"?>
<!DOCTYPE svg PUBLIC "-//W3C//DTD SVG 1.1//EN"
 "http://www.w3.org/Graphics/SVG/1.1/DTD/svg11.dtd">
<!-- Generated by graphviz version 2.38.0 (20140413.2041)
 -->
<!-- Title: GRM Pages: 1 -->
<svg width="237pt" height="294pt"
 viewBox="0.00 0.00 237.00 293.63" xmlns="http://www.w3.org/2000/svg" xmlns:xlink="http://www.w3.org/1999/xlink">
<g id="graph0" class="graph" transform="scale(1 1) rotate(0) translate(4 289.628)">
<title>GRM</title>
<polygon fill="white" stroke="none" points="-4,4 -4,-289.628 233,-289.628 233,4 -4,4"/>
<!-- S0_0 -->
<g id="node1" class="node"><title>S0_0</title>
<ellipse fill="none" stroke="black" cx="39.5" cy="-140.628" rx="18" ry="18"/>
<text text-anchor="middle" x="39.5" y="-136.928" font-family="Times,serif" font-size="14.00">S</text>
</g>
<!-- S0_0&#45;&gt;S0_0 -->
<g id="edge1" class="edge"><title>S0_0&#45;&gt;S0_0</title>
<path fill="none" stroke="black" d="M27.7435,-154.669C23.3468,-165.54 27.2656,-176.628 39.5,-176.628 47.9111,-176.628 52.3919,-171.387 52.9422,-164.579"/>
<polygon fill="black" stroke="black" points="56.384,-163.941 51.2565,-154.669 49.4831,-165.115 56.384,-163.941"/>
<text text-anchor="middle" x="39.5" y="-180.428" font-family="Times,serif" font-size="14.00">&lt;PAU&gt; : ε | 0</text>
</g>
<!-- S0_1 -->
<g id="node2" class="node"><title>S0_1</title>
<ellipse fill="none" stroke="black" cx="189.5" cy="-140.628" rx="18" ry="18"/>
<ellipse fill="none" stroke="black" cx="189.5" cy="-140.628" rx="22" ry="22"/>
<text text-anchor="middle" x="189.5" y="-136.928" font-family="Times,serif" font-size="14.00">F</text>
</g>
<!-- S0_0&#45;&gt;S0_1 -->
<g id="edge3" class="edge"><title>S0_0&#45;&gt;S0_1</title>
<path fill="none" stroke="black" d="M41.9095,-158.872C44.5292,-187.329 51.2307,-240.215 65.5,-251.628 98.1258,-277.722 126.435,-277.164 159.5,-251.628 171.925,-242.032 180.044,-202.164 184.449,-172.944"/>
<polygon fill="black" stroke="black" points="187.958,-173.131 185.905,-162.737 181.028,-172.143 187.958,-173.131"/>
<text text-anchor="middle" x="112.5" y="-274.428" font-family="Times,serif" font-size="14.00">_C001 : C001 | 0</text>
</g>
<!-- S0_0&#45;&gt;S0_1 -->
<g id="edge4" class="edge"><title>S0_0&#45;&gt;S0_1</title>
<path fill="none" stroke="black" d="M41.0834,-158.793C42.7229,-176.083 48.1697,-201.244 65.5,-213.628 99.4917,-237.916 124.933,-237.09 159.5,-213.628 173.068,-204.418 180.288,-187.753 184.13,-172.67"/>
<polygon fill="black" stroke="black" points="187.617,-173.101 186.287,-162.59 180.772,-171.637 187.617,-173.101"/>
<text text-anchor="middle" x="112.5" y="-234.428" font-family="Times,serif" font-size="14.00">_C002 : C002 | 0</text>
</g>
<!-- S0_0&#45;&gt;S0_1 -->
<g id="edge5" class="edge"><title>S0_0&#45;&gt;S0_1</title>
<path fill="none" stroke="black" d="M47.8423,-157.025C51.9429,-164.106 57.798,-171.664 65.5,-175.628 102.647,-194.744 121.691,-193.401 159.5,-175.628 163.794,-173.609 167.67,-170.608 171.089,-167.197"/>
<polygon fill="black" stroke="black" points="173.999,-169.179 177.825,-159.299 168.673,-164.637 173.999,-169.179"/>
<text text-anchor="middle" x="112.5" y="-192.428" font-family="Times,serif" font-size="14.00">_C005 : C005 | 0</text>
</g>
<!-- S0_0&#45;&gt;S0_1 -->
<g id="edge6" class="edge"><title>S0_0&#45;&gt;S0_1</title>
<path fill="none" stroke="black" d="M57.7671,-140.628C82.0497,-140.628 126.701,-140.628 156.989,-140.628"/>
<polygon fill="black" stroke="black" points="157.046,-144.128 167.046,-140.628 157.046,-137.128 157.046,-144.128"/>
<text text-anchor="middle" x="112.5" y="-144.428" font-family="Times,serif" font-size="14.00">_C010 : C010 | 0</text>
</g>
<!-- S0_0&#45;&gt;S0_1 -->
<g id="edge7" class="edge"><title>S0_0&#45;&gt;S0_1</title>
<path fill="none" stroke="black" d="M53.0538,-128.6C56.7778,-125.76 61.057,-123.124 65.5,-121.628 105.092,-108.29 119.467,-109.681 159.5,-121.628 160.567,-121.946 161.631,-122.318 162.688,-122.733"/>
<polygon fill="black" stroke="black" points="161.342,-125.976 171.84,-127.404 164.524,-119.741 161.342,-125.976"/>
<text text-anchor="middle" x="112.5" y="-125.428" font-family="Times,serif" font-size="14.00">_C020 : C020 | 0</text>
</g>
<!-- S0_0&#45;&gt;S0_1 -->
<g id="edge8" class="edge"><title>S0_0&#45;&gt;S0_1</title>
<path fill="none" stroke="black" d="M44.6281,-123.244C48.2021,-112.388 54.5749,-99.2555 65.5,-92.6276 101.219,-70.9581 123.114,-72.0993 159.5,-92.6276 166.774,-96.7314 172.429,-103.474 176.734,-110.627"/>
<polygon fill="black" stroke="black" points="173.758,-112.49 181.485,-119.739 179.965,-109.253 173.758,-112.49"/>
<text text-anchor="middle" x="112.5" y="-96.4276" font-family="Times,serif" font-size="14.00">_C050 : C050 | 0</text>
</g>
<!-- S0_0&#45;&gt;S0_1 -->
<g id="edge9" class="edge"><title>S0_0&#45;&gt;S0_1</title>
<path fill="none" stroke="black" d="M40.1625,-122.59C40.89,-103.004 45.4492,-72.5288 65.5,-57.6276 99.0318,-32.7077 125.433,-33.4441 159.5,-57.6276 175.703,-69.1295 182.926,-90.3954 186.112,-108.521"/>
<polygon fill="black" stroke="black" points="182.652,-109.053 187.529,-118.459 189.582,-108.065 182.652,-109.053"/>
<text text-anchor="middle" x="112.5" y="-61.4276" font-family="Times,serif" font-size="14.00">_C100 : C100 | 0</text>
</g>
<!-- S0_0&#45;&gt;S0_1 -->
<g id="edge10" class="edge"><title>S0_0&#45;&gt;S0_1</title>
<path fill="none" stroke="black" d="M41.5112,-122.732C43.6466,-92.2806 49.783,-32.4292 65.5,-19.6276 97.8924,6.75637 126.696,6.24314 159.5,-19.6276 173.291,-30.5041 181.263,-76.3871 185.244,-108.414"/>
<polygon fill="black" stroke="black" points="181.806,-109.148 186.444,-118.674 188.759,-108.335 181.806,-109.148"/>
<text text-anchor="middle" x="112.5" y="-23.4276" font-family="Times,serif" font-size="14.00">_C200 : C200 | 0</text>
</g>
<!-- S0_1&#45;&gt;S0_1 -->
<g id="edge2" class="edge"><title>S0_1&#45;&gt;S0_1</title>
<path fill="none" stroke="black" d="M176.377,-158.312C172.954,-169.684 177.328,-180.628 189.5,-180.628 197.868,-180.628 202.551,-175.455 203.548,-168.527"/>
<polygon fill="black" stroke="black" points="207.01,-167.956 202.623,-158.312 200.039,-168.587 207.01,-167.956"/>
<text text-anchor="middle" x="189.5" y="-184.428" font-family="Times,serif" font-size="14.00">&lt;PAU&gt; : ε | 0</text>
</g>
</g>
</svg>
