<?xml version="1.0" encoding="UTF-8" standalone="no"?>
<!DOCTYPE svg PUBLIC "-//W3C//DTD SVG 1.1//EN"
 "http://www.w3.org/Graphics/SVG/1.1/DTD/svg11.dtd">
<!-- Generated by graphviz version 2.38.0 (20140413.2041)
 -->
<!-- Title: itAux Pages: 1 -->
<svg width="208pt" height="874pt"
 viewBox="0.00 0.00 208.00 874.00" xmlns="http://www.w3.org/2000/svg" xmlns:xlink="http://www.w3.org/1999/xlink">
<g id="graph0" class="graph" transform="scale(1 1) rotate(0) translate(4 870)">
<title>itAux</title>
<polygon fill="white" stroke="none" points="-4,4 -4,-870 204,-870 204,4 -4,4"/>
<!-- S0_0 -->
<g id="node1" class="node"><title>S0_0</title>
<ellipse fill="none" stroke="black" cx="18" cy="-22" rx="18" ry="18"/>
<text text-anchor="middle" x="18" y="-18.3" font-family="Times,serif" font-size="14.00">0</text>
</g>
<!-- S0_1 -->
<g id="node2" class="node"><title>S0_1</title>
<ellipse fill="none" stroke="black" cx="168" cy="-22" rx="18" ry="18"/>
<ellipse fill="none" stroke="black" cx="168" cy="-22" rx="22" ry="22"/>
<text text-anchor="middle" x="168" y="-18.3" font-family="Times,serif" font-size="14.00">1</text>
</g>
<!-- S0_0&#45;&gt;S0_1 -->
<g id="edge1" class="edge"><title>S0_0&#45;&gt;S0_1</title>
<path fill="none" stroke="black" d="M36.2671,-22C60.5497,-22 105.201,-22 135.489,-22"/>
<polygon fill="black" stroke="black" points="135.546,-25.5001 145.546,-22 135.546,-18.5001 135.546,-25.5001"/>
<text text-anchor="middle" x="91" y="-25.8" font-family="Times,serif" font-size="14.00">C001 : _C001 | 0</text>
</g>
<!-- S1_0 -->
<g id="node3" class="node"><title>S1_0</title>
<ellipse fill="none" stroke="black" cx="18" cy="-84" rx="18" ry="18"/>
<text text-anchor="middle" x="18" y="-80.3" font-family="Times,serif" font-size="14.00">0</text>
</g>
<!-- S1_1 -->
<g id="node4" class="node"><title>S1_1</title>
<ellipse fill="none" stroke="black" cx="168" cy="-84" rx="18" ry="18"/>
<ellipse fill="none" stroke="black" cx="168" cy="-84" rx="22" ry="22"/>
<text text-anchor="middle" x="168" y="-80.3" font-family="Times,serif" font-size="14.00">1</text>
</g>
<!-- S1_0&#45;&gt;S1_1 -->
<g id="edge2" class="edge"><title>S1_0&#45;&gt;S1_1</title>
<path fill="none" stroke="black" d="M36.2671,-84C60.5497,-84 105.201,-84 135.489,-84"/>
<polygon fill="black" stroke="black" points="135.546,-87.5001 145.546,-84 135.546,-80.5001 135.546,-87.5001"/>
<text text-anchor="middle" x="91" y="-87.8" font-family="Times,serif" font-size="14.00">C002 : _C002 | 0</text>
</g>
<!-- S2_0 -->
<g id="node5" class="node"><title>S2_0</title>
<ellipse fill="none" stroke="black" cx="18" cy="-146" rx="18" ry="18"/>
<text text-anchor="middle" x="18" y="-142.3" font-family="Times,serif" font-size="14.00">0</text>
</g>
<!-- S2_1 -->
<g id="node6" class="node"><title>S2_1</title>
<ellipse fill="none" stroke="black" cx="168" cy="-146" rx="18" ry="18"/>
<ellipse fill="none" stroke="black" cx="168" cy="-146" rx="22" ry="22"/>
<text text-anchor="middle" x="168" y="-142.3" font-family="Times,serif" font-size="14.00">1</text>
</g>
<!-- S2_0&#45;&gt;S2_1 -->
<g id="edge3" class="edge"><title>S2_0&#45;&gt;S2_1</title>
<path fill="none" stroke="black" d="M36.2671,-146C60.5497,-146 105.201,-146 135.489,-146"/>
<polygon fill="black" stroke="black" points="135.546,-149.5 145.546,-146 135.546,-142.5 135.546,-149.5"/>
<text text-anchor="middle" x="91" y="-149.8" font-family="Times,serif" font-size="14.00">C005 : _C005 | 0</text>
</g>
<!-- S3_0 -->
<g id="node7" class="node"><title>S3_0</title>
<ellipse fill="none" stroke="black" cx="18" cy="-208" rx="18" ry="18"/>
<text text-anchor="middle" x="18" y="-204.3" font-family="Times,serif" font-size="14.00">0</text>
</g>
<!-- S3_1 -->
<g id="node8" class="node"><title>S3_1</title>
<ellipse fill="none" stroke="black" cx="168" cy="-208" rx="18" ry="18"/>
<ellipse fill="none" stroke="black" cx="168" cy="-208" rx="22" ry="22"/>
<text text-anchor="middle" x="168" y="-204.3" font-family="Times,serif" font-size="14.00">1</text>
</g>
<!-- S3_0&#45;&gt;S3_1 -->
<g id="edge4" class="edge"><title>S3_0&#45;&gt;S3_1</title>
<path fill="none" stroke="black" d="M36.2671,-208C60.5497,-208 105.201,-208 135.489,-208"/>
<polygon fill="black" stroke="black" points="135.546,-211.5 145.546,-208 135.546,-204.5 135.546,-211.5"/>
<text text-anchor="middle" x="91" y="-211.8" font-family="Times,serif" font-size="14.00">C010 : _C010 | 0</text>
</g>
<!-- S4_0 -->
<g id="node9" class="node"><title>S4_0</title>
<ellipse fill="none" stroke="black" cx="18" cy="-270" rx="18" ry="18"/>
<text text-anchor="middle" x="18" y="-266.3" font-family="Times,serif" font-size="14.00">0</text>
</g>
<!-- S4_1 -->
<g id="node10" class="node"><title>S4_1</title>
<ellipse fill="none" stroke="black" cx="168" cy="-270" rx="18" ry="18"/>
<ellipse fill="none" stroke="black" cx="168" cy="-270" rx="22" ry="22"/>
<text text-anchor="middle" x="168" y="-266.3" font-family="Times,serif" font-size="14.00">1</text>
</g>
<!-- S4_0&#45;&gt;S4_1 -->
<g id="edge5" class="edge"><title>S4_0&#45;&gt;S4_1</title>
<path fill="none" stroke="black" d="M36.2671,-270C60.5497,-270 105.201,-270 135.489,-270"/>
<polygon fill="black" stroke="black" points="135.546,-273.5 145.546,-270 135.546,-266.5 135.546,-273.5"/>
<text text-anchor="middle" x="91" y="-273.8" font-family="Times,serif" font-size="14.00">C020 : _C020 | 0</text>
</g>
<!-- S5_0 -->
<g id="node11" class="node"><title>S5_0</title>
<ellipse fill="none" stroke="black" cx="18" cy="-332" rx="18" ry="18"/>
<text text-anchor="middle" x="18" y="-328.3" font-family="Times,serif" font-size="14.00">0</text>
</g>
<!-- S5_1 -->
<g id="node12" class="node"><title>S5_1</title>
<ellipse fill="none" stroke="black" cx="168" cy="-332" rx="18" ry="18"/>
<ellipse fill="none" stroke="black" cx="168" cy="-332" rx="22" ry="22"/>
<text text-anchor="middle" x="168" y="-328.3" font-family="Times,serif" font-size="14.00">1</text>
</g>
<!-- S5_0&#45;&gt;S5_1 -->
<g id="edge6" class="edge"><title>S5_0&#45;&gt;S5_1</title>
<path fill="none" stroke="black" d="M36.2671,-332C60.5497,-332 105.201,-332 135.489,-332"/>
<polygon fill="black" stroke="black" points="135.546,-335.5 145.546,-332 135.546,-328.5 135.546,-335.5"/>
<text text-anchor="middle" x="91" y="-335.8" font-family="Times,serif" font-size="14.00">C050 : _C050 | 0</text>
</g>
<!-- S6_0 -->
<g id="node13" class="node"><title>S6_0</title>
<ellipse fill="none" stroke="black" cx="18" cy="-394" rx="18" ry="18"/>
<text text-anchor="middle" x="18" y="-390.3" font-family="Times,serif" font-size="14.00">0</text>
</g>
<!-- S6_1 -->
<g id="node14" class="node"><title>S6_1</title>
<ellipse fill="none" stroke="black" cx="168" cy="-394" rx="18" ry="18"/>
<ellipse fill="none" stroke="black" cx="168" cy="-394" rx="22" ry="22"/>
<text text-anchor="middle" x="168" y="-390.3" font-family="Times,serif" font-size="14.00">1</text>
</g>
<!-- S6_0&#45;&gt;S6_1 -->
<g id="edge7" class="edge"><title>S6_0&#45;&gt;S6_1</title>
<path fill="none" stroke="black" d="M36.2671,-394C60.5497,-394 105.201,-394 135.489,-394"/>
<polygon fill="black" stroke="black" points="135.546,-397.5 145.546,-394 135.546,-390.5 135.546,-397.5"/>
<text text-anchor="middle" x="91" y="-397.8" font-family="Times,serif" font-size="14.00">C100 : _C100 | 0</text>
</g>
<!-- S7_0 -->
<g id="node15" class="node"><title>S7_0</title>
<ellipse fill="none" stroke="black" cx="18" cy="-456" rx="18" ry="18"/>
<text text-anchor="middle" x="18" y="-452.3" font-family="Times,serif" font-size="14.00">0</text>
</g>
<!-- S7_1 -->
<g id="node16" class="node"><title>S7_1</title>
<ellipse fill="none" stroke="black" cx="168" cy="-456" rx="18" ry="18"/>
<ellipse fill="none" stroke="black" cx="168" cy="-456" rx="22" ry="22"/>
<text text-anchor="middle" x="168" y="-452.3" font-family="Times,serif" font-size="14.00">1</text>
</g>
<!-- S7_0&#45;&gt;S7_1 -->
<g id="edge8" class="edge"><title>S7_0&#45;&gt;S7_1</title>
<path fill="none" stroke="black" d="M36.2671,-456C60.5497,-456 105.201,-456 135.489,-456"/>
<polygon fill="black" stroke="black" points="135.546,-459.5 145.546,-456 135.546,-452.5 135.546,-459.5"/>
<text text-anchor="middle" x="91" y="-459.8" font-family="Times,serif" font-size="14.00">C200 : _C200 | 0</text>
</g>
<!-- S8_0 -->
<g id="node17" class="node"><title>S8_0</title>
<ellipse fill="none" stroke="black" cx="18" cy="-518" rx="18" ry="18"/>
<text text-anchor="middle" x="18" y="-514.3" font-family="Times,serif" font-size="14.00">0</text>
</g>
<!-- S8_1 -->
<g id="node18" class="node"><title>S8_1</title>
<ellipse fill="none" stroke="black" cx="168" cy="-518" rx="18" ry="18"/>
<ellipse fill="none" stroke="black" cx="168" cy="-518" rx="22" ry="22"/>
<text text-anchor="middle" x="168" y="-514.3" font-family="Times,serif" font-size="14.00">1</text>
</g>
<!-- S8_0&#45;&gt;S8_1 -->
<g id="edge9" class="edge"><title>S8_0&#45;&gt;S8_1</title>
<path fill="none" stroke="black" d="M36.2671,-518C60.5497,-518 105.201,-518 135.489,-518"/>
<polygon fill="black" stroke="black" points="135.546,-521.5 145.546,-518 135.546,-514.5 135.546,-521.5"/>
<text text-anchor="middle" x="91" y="-521.8" font-family="Times,serif" font-size="14.00">SIL : &lt;PAU&gt; | 0</text>
</g>
<!-- S9_0 -->
<g id="node19" class="node"><title>S9_0</title>
<ellipse fill="none" stroke="black" cx="18" cy="-580" rx="18" ry="18"/>
<text text-anchor="middle" x="18" y="-576.3" font-family="Times,serif" font-size="14.00">0</text>
</g>
<!-- S9_1 -->
<g id="node20" class="node"><title>S9_1</title>
<ellipse fill="none" stroke="black" cx="168" cy="-580" rx="18" ry="18"/>
<ellipse fill="none" stroke="black" cx="168" cy="-580" rx="22" ry="22"/>
<text text-anchor="middle" x="168" y="-576.3" font-family="Times,serif" font-size="14.00">1</text>
</g>
<!-- S9_0&#45;&gt;S9_1 -->
<g id="edge10" class="edge"><title>S9_0&#45;&gt;S9_1</title>
<path fill="none" stroke="black" d="M36.2671,-580C60.5497,-580 105.201,-580 135.489,-580"/>
<polygon fill="black" stroke="black" points="135.546,-583.5 145.546,-580 135.546,-576.5 135.546,-583.5"/>
<text text-anchor="middle" x="91" y="-583.8" font-family="Times,serif" font-size="14.00">ε : &lt;OOV&gt; | 0</text>
</g>
<!-- S9_1&#45;&gt;S9_1 -->
<g id="edge11" class="edge"><title>S9_1&#45;&gt;S9_1</title>
<path fill="none" stroke="black" d="M166.24,-602.212C166.096,-611.795 166.683,-620 168,-620 168.803,-620 169.334,-616.953 169.594,-612.405"/>
<polygon fill="black" stroke="black" points="173.097,-612.268 169.76,-602.212 166.098,-612.154 173.097,-612.268"/>
<text text-anchor="middle" x="168" y="-623.8" font-family="Times,serif" font-size="14.00">C001 : ε | 0</text>
</g>
<!-- S9_1&#45;&gt;S9_1 -->
<g id="edge12" class="edge"><title>S9_1&#45;&gt;S9_1</title>
<path fill="none" stroke="black" d="M164.938,-602.019C163.714,-619.724 164.734,-638 168,-638 170.628,-638 171.802,-626.166 171.522,-612.318"/>
<polygon fill="black" stroke="black" points="175.005,-611.853 171.062,-602.019 168.012,-612.165 175.005,-611.853"/>
<text text-anchor="middle" x="168" y="-641.8" font-family="Times,serif" font-size="14.00">C002 : ε | 0</text>
</g>
<!-- S9_1&#45;&gt;S9_1 -->
<g id="edge13" class="edge"><title>S9_1&#45;&gt;S9_1</title>
<path fill="none" stroke="black" d="M164.077,-601.784C161.293,-626.903 162.601,-656 168,-656 172.682,-656 174.288,-634.119 172.816,-611.926"/>
<polygon fill="black" stroke="black" points="176.287,-611.439 171.923,-601.784 169.314,-612.053 176.287,-611.439"/>
<text text-anchor="middle" x="168" y="-659.8" font-family="Times,serif" font-size="14.00">C005 : ε | 0</text>
</g>
<!-- S9_1&#45;&gt;S9_1 -->
<g id="edge14" class="edge"><title>S9_1&#45;&gt;S9_1</title>
<path fill="none" stroke="black" d="M163.453,-601.714C158.877,-633.815 160.393,-674 168,-674 174.835,-674 176.752,-641.563 173.752,-611.694"/>
<polygon fill="black" stroke="black" points="177.221,-611.222 172.547,-601.714 170.271,-612.062 177.221,-611.222"/>
<text text-anchor="middle" x="168" y="-677.8" font-family="Times,serif" font-size="14.00">C010 : ε | 0</text>
</g>
<!-- S9_1&#45;&gt;S9_1 -->
<g id="edge15" class="edge"><title>S9_1&#45;&gt;S9_1</title>
<path fill="none" stroke="black" d="M163.021,-601.442C156.46,-640.31 158.12,-692 168,-692 177.031,-692 179.194,-648.813 174.488,-611.706"/>
<polygon fill="black" stroke="black" points="177.897,-610.826 172.979,-601.442 170.971,-611.845 177.897,-610.826"/>
<text text-anchor="middle" x="168" y="-695.8" font-family="Times,serif" font-size="14.00">C020 : ε | 0</text>
</g>
<!-- S9_1&#45;&gt;S9_1 -->
<g id="edge16" class="edge"><title>S9_1&#45;&gt;S9_1</title>
<path fill="none" stroke="black" d="M162.655,-601.424C154.056,-646.864 155.837,-710 168,-710 179.284,-710 181.633,-655.66 175.047,-611.522"/>
<polygon fill="black" stroke="black" points="178.458,-610.703 173.345,-601.424 171.555,-611.866 178.458,-610.703"/>
<text text-anchor="middle" x="168" y="-713.8" font-family="Times,serif" font-size="14.00">C050 : ε | 0</text>
</g>
<!-- S9_1&#45;&gt;S9_1 -->
<g id="edge17" class="edge"><title>S9_1&#45;&gt;S9_1</title>
<path fill="none" stroke="black" d="M162.327,-601.57C151.66,-653.467 153.551,-728 168,-728 181.546,-728 184.055,-662.492 175.526,-611.542"/>
<polygon fill="black" stroke="black" points="178.941,-610.762 173.673,-601.57 172.058,-612.041 178.941,-610.762"/>
<text text-anchor="middle" x="168" y="-731.8" font-family="Times,serif" font-size="14.00">C100 : ε | 0</text>
</g>
<!-- S9_1&#45;&gt;S9_1 -->
<g id="edge18" class="edge"><title>S9_1&#45;&gt;S9_1</title>
<path fill="none" stroke="black" d="M162.103,-601.466C149.261,-659.751 151.227,-746 168,-746 183.823,-746 186.469,-669.245 175.937,-611.618"/>
<polygon fill="black" stroke="black" points="179.298,-610.58 173.897,-601.466 172.435,-611.959 179.298,-610.58"/>
<text text-anchor="middle" x="168" y="-749.8" font-family="Times,serif" font-size="14.00">C200 : ε | 0</text>
</g>
</g>
</svg>
