<?xml version="1.0" encoding="UTF-8" standalone="no"?>
<!DOCTYPE svg PUBLIC "-//W3C//DTD SVG 1.1//EN"
 "http://www.w3.org/Graphics/SVG/1.1/DTD/svg11.dtd">
<!-- Generated by graphviz version 2.38.0 (20140413.2041)
 -->
<!-- Title: itAux Pages: 1 -->
<svg width="209pt" height="812pt"
 viewBox="0.00 0.00 209.00 812.00" xmlns="http://www.w3.org/2000/svg" xmlns:xlink="http://www.w3.org/1999/xlink">
<g id="graph0" class="graph" transform="scale(1 1) rotate(0) translate(4 808)">
<title>itAux</title>
<polygon fill="white" stroke="none" points="-4,4 -4,-808 205,-808 205,4 -4,4"/>
<!-- S0_0 -->
<g id="node1" class="node"><title>S0_0</title>
<ellipse fill="none" stroke="black" cx="18" cy="-22" rx="18" ry="18"/>
<text text-anchor="middle" x="18" y="-18.3" font-family="Times New Roman,serif" font-size="14.00">0</text>
</g>
<!-- S0_1 -->
<g id="node2" class="node"><title>S0_1</title>
<ellipse fill="none" stroke="black" cx="169" cy="-22" rx="18" ry="18"/>
<ellipse fill="none" stroke="black" cx="169" cy="-22" rx="22" ry="22"/>
<text text-anchor="middle" x="169" y="-18.3" font-family="Times New Roman,serif" font-size="14.00">1</text>
</g>
<!-- S0_0&#45;&gt;S0_1 -->
<g id="edge1" class="edge"><title>S0_0&#45;&gt;S0_1</title>
<path fill="none" stroke="black" d="M36.0922,-22C60.5716,-22 106.033,-22 136.652,-22"/>
<polygon fill="black" stroke="black" points="136.805,-25.5001 146.805,-22 136.805,-18.5001 136.805,-25.5001"/>
<text text-anchor="middle" x="91.5" y="-25.8" font-family="Times New Roman,serif" font-size="14.00">C001 : _C001 | 0</text>
</g>
<!-- S1_0 -->
<g id="node3" class="node"><title>S1_0</title>
<ellipse fill="none" stroke="black" cx="18" cy="-84" rx="18" ry="18"/>
<text text-anchor="middle" x="18" y="-80.3" font-family="Times New Roman,serif" font-size="14.00">0</text>
</g>
<!-- S1_1 -->
<g id="node4" class="node"><title>S1_1</title>
<ellipse fill="none" stroke="black" cx="169" cy="-84" rx="18" ry="18"/>
<ellipse fill="none" stroke="black" cx="169" cy="-84" rx="22" ry="22"/>
<text text-anchor="middle" x="169" y="-80.3" font-family="Times New Roman,serif" font-size="14.00">1</text>
</g>
<!-- S1_0&#45;&gt;S1_1 -->
<g id="edge2" class="edge"><title>S1_0&#45;&gt;S1_1</title>
<path fill="none" stroke="black" d="M36.0922,-84C60.5716,-84 106.033,-84 136.652,-84"/>
<polygon fill="black" stroke="black" points="136.805,-87.5001 146.805,-84 136.805,-80.5001 136.805,-87.5001"/>
<text text-anchor="middle" x="91.5" y="-87.8" font-family="Times New Roman,serif" font-size="14.00">C002 : _C002 | 0</text>
</g>
<!-- S2_0 -->
<g id="node5" class="node"><title>S2_0</title>
<ellipse fill="none" stroke="black" cx="18" cy="-146" rx="18" ry="18"/>
<text text-anchor="middle" x="18" y="-142.3" font-family="Times New Roman,serif" font-size="14.00">0</text>
</g>
<!-- S2_1 -->
<g id="node6" class="node"><title>S2_1</title>
<ellipse fill="none" stroke="black" cx="169" cy="-146" rx="18" ry="18"/>
<ellipse fill="none" stroke="black" cx="169" cy="-146" rx="22" ry="22"/>
<text text-anchor="middle" x="169" y="-142.3" font-family="Times New Roman,serif" font-size="14.00">1</text>
</g>
<!-- S2_0&#45;&gt;S2_1 -->
<g id="edge3" class="edge"><title>S2_0&#45;&gt;S2_1</title>
<path fill="none" stroke="black" d="M36.0922,-146C60.5716,-146 106.033,-146 136.652,-146"/>
<polygon fill="black" stroke="black" points="136.805,-149.5 146.805,-146 136.805,-142.5 136.805,-149.5"/>
<text text-anchor="middle" x="91.5" y="-149.8" font-family="Times New Roman,serif" font-size="14.00">C005 : _C005 | 0</text>
</g>
<!-- S3_0 -->
<g id="node7" class="node"><title>S3_0</title>
<ellipse fill="none" stroke="black" cx="18" cy="-208" rx="18" ry="18"/>
<text text-anchor="middle" x="18" y="-204.3" font-family="Times New Roman,serif" font-size="14.00">0</text>
</g>
<!-- S3_1 -->
<g id="node8" class="node"><title>S3_1</title>
<ellipse fill="none" stroke="black" cx="169" cy="-208" rx="18" ry="18"/>
<ellipse fill="none" stroke="black" cx="169" cy="-208" rx="22" ry="22"/>
<text text-anchor="middle" x="169" y="-204.3" font-family="Times New Roman,serif" font-size="14.00">1</text>
</g>
<!-- S3_0&#45;&gt;S3_1 -->
<g id="edge4" class="edge"><title>S3_0&#45;&gt;S3_1</title>
<path fill="none" stroke="black" d="M36.0922,-208C60.5716,-208 106.033,-208 136.652,-208"/>
<polygon fill="black" stroke="black" points="136.805,-211.5 146.805,-208 136.805,-204.5 136.805,-211.5"/>
<text text-anchor="middle" x="91.5" y="-211.8" font-family="Times New Roman,serif" font-size="14.00">C010 : _C010 | 0</text>
</g>
<!-- S4_0 -->
<g id="node9" class="node"><title>S4_0</title>
<ellipse fill="none" stroke="black" cx="18" cy="-270" rx="18" ry="18"/>
<text text-anchor="middle" x="18" y="-266.3" font-family="Times New Roman,serif" font-size="14.00">0</text>
</g>
<!-- S4_1 -->
<g id="node10" class="node"><title>S4_1</title>
<ellipse fill="none" stroke="black" cx="169" cy="-270" rx="18" ry="18"/>
<ellipse fill="none" stroke="black" cx="169" cy="-270" rx="22" ry="22"/>
<text text-anchor="middle" x="169" y="-266.3" font-family="Times New Roman,serif" font-size="14.00">1</text>
</g>
<!-- S4_0&#45;&gt;S4_1 -->
<g id="edge5" class="edge"><title>S4_0&#45;&gt;S4_1</title>
<path fill="none" stroke="black" d="M36.0922,-270C60.5716,-270 106.033,-270 136.652,-270"/>
<polygon fill="black" stroke="black" points="136.805,-273.5 146.805,-270 136.805,-266.5 136.805,-273.5"/>
<text text-anchor="middle" x="91.5" y="-273.8" font-family="Times New Roman,serif" font-size="14.00">C020 : _C020 | 0</text>
</g>
<!-- S5_0 -->
<g id="node11" class="node"><title>S5_0</title>
<ellipse fill="none" stroke="black" cx="18" cy="-332" rx="18" ry="18"/>
<text text-anchor="middle" x="18" y="-328.3" font-family="Times New Roman,serif" font-size="14.00">0</text>
</g>
<!-- S5_1 -->
<g id="node12" class="node"><title>S5_1</title>
<ellipse fill="none" stroke="black" cx="169" cy="-332" rx="18" ry="18"/>
<ellipse fill="none" stroke="black" cx="169" cy="-332" rx="22" ry="22"/>
<text text-anchor="middle" x="169" y="-328.3" font-family="Times New Roman,serif" font-size="14.00">1</text>
</g>
<!-- S5_0&#45;&gt;S5_1 -->
<g id="edge6" class="edge"><title>S5_0&#45;&gt;S5_1</title>
<path fill="none" stroke="black" d="M36.0922,-332C60.5716,-332 106.033,-332 136.652,-332"/>
<polygon fill="black" stroke="black" points="136.805,-335.5 146.805,-332 136.805,-328.5 136.805,-335.5"/>
<text text-anchor="middle" x="91.5" y="-335.8" font-family="Times New Roman,serif" font-size="14.00">C050 : _C050 | 0</text>
</g>
<!-- S6_0 -->
<g id="node13" class="node"><title>S6_0</title>
<ellipse fill="none" stroke="black" cx="18" cy="-394" rx="18" ry="18"/>
<text text-anchor="middle" x="18" y="-390.3" font-family="Times New Roman,serif" font-size="14.00">0</text>
</g>
<!-- S6_1 -->
<g id="node14" class="node"><title>S6_1</title>
<ellipse fill="none" stroke="black" cx="169" cy="-394" rx="18" ry="18"/>
<ellipse fill="none" stroke="black" cx="169" cy="-394" rx="22" ry="22"/>
<text text-anchor="middle" x="169" y="-390.3" font-family="Times New Roman,serif" font-size="14.00">1</text>
</g>
<!-- S6_0&#45;&gt;S6_1 -->
<g id="edge7" class="edge"><title>S6_0&#45;&gt;S6_1</title>
<path fill="none" stroke="black" d="M36.0922,-394C60.5716,-394 106.033,-394 136.652,-394"/>
<polygon fill="black" stroke="black" points="136.805,-397.5 146.805,-394 136.805,-390.5 136.805,-397.5"/>
<text text-anchor="middle" x="91.5" y="-397.8" font-family="Times New Roman,serif" font-size="14.00">C100 : _C100 | 0</text>
</g>
<!-- S7_0 -->
<g id="node15" class="node"><title>S7_0</title>
<ellipse fill="none" stroke="black" cx="18" cy="-456" rx="18" ry="18"/>
<text text-anchor="middle" x="18" y="-452.3" font-family="Times New Roman,serif" font-size="14.00">0</text>
</g>
<!-- S7_1 -->
<g id="node16" class="node"><title>S7_1</title>
<ellipse fill="none" stroke="black" cx="169" cy="-456" rx="18" ry="18"/>
<ellipse fill="none" stroke="black" cx="169" cy="-456" rx="22" ry="22"/>
<text text-anchor="middle" x="169" y="-452.3" font-family="Times New Roman,serif" font-size="14.00">1</text>
</g>
<!-- S7_0&#45;&gt;S7_1 -->
<g id="edge8" class="edge"><title>S7_0&#45;&gt;S7_1</title>
<path fill="none" stroke="black" d="M36.0922,-456C60.5716,-456 106.033,-456 136.652,-456"/>
<polygon fill="black" stroke="black" points="136.805,-459.5 146.805,-456 136.805,-452.5 136.805,-459.5"/>
<text text-anchor="middle" x="91.5" y="-459.8" font-family="Times New Roman,serif" font-size="14.00">C200 : _C200 | 0</text>
</g>
<!-- S8_0 -->
<g id="node17" class="node"><title>S8_0</title>
<ellipse fill="none" stroke="black" cx="18" cy="-518" rx="18" ry="18"/>
<text text-anchor="middle" x="18" y="-514.3" font-family="Times New Roman,serif" font-size="14.00">0</text>
</g>
<!-- S8_1 -->
<g id="node18" class="node"><title>S8_1</title>
<ellipse fill="none" stroke="black" cx="169" cy="-518" rx="18" ry="18"/>
<ellipse fill="none" stroke="black" cx="169" cy="-518" rx="22" ry="22"/>
<text text-anchor="middle" x="169" y="-514.3" font-family="Times New Roman,serif" font-size="14.00">1</text>
</g>
<!-- S8_0&#45;&gt;S8_1 -->
<g id="edge9" class="edge"><title>S8_0&#45;&gt;S8_1</title>
<path fill="none" stroke="black" d="M36.0922,-518C60.5716,-518 106.033,-518 136.652,-518"/>
<polygon fill="black" stroke="black" points="136.805,-521.5 146.805,-518 136.805,-514.5 136.805,-521.5"/>
<text text-anchor="middle" x="91.5" y="-521.8" font-family="Times New Roman,serif" font-size="14.00">ε : &lt;OOV&gt; | 0</text>
</g>
<!-- S8_1&#45;&gt;S8_1 -->
<g id="edge10" class="edge"><title>S8_1&#45;&gt;S8_1</title>
<path fill="none" stroke="black" d="M167.24,-540.212C167.096,-549.795 167.683,-558 169,-558 169.803,-558 170.334,-554.953 170.594,-550.405"/>
<polygon fill="black" stroke="black" points="174.097,-550.268 170.76,-540.212 167.098,-550.154 174.097,-550.268"/>
<text text-anchor="middle" x="169" y="-561.8" font-family="Times New Roman,serif" font-size="14.00">C001 : ε | 0</text>
</g>
<!-- S8_1&#45;&gt;S8_1 -->
<g id="edge11" class="edge"><title>S8_1&#45;&gt;S8_1</title>
<path fill="none" stroke="black" d="M165.938,-540.019C164.714,-557.724 165.734,-576 169,-576 171.628,-576 172.802,-564.166 172.522,-550.318"/>
<polygon fill="black" stroke="black" points="176.005,-549.853 172.062,-540.019 169.012,-550.165 176.005,-549.853"/>
<text text-anchor="middle" x="169" y="-579.8" font-family="Times New Roman,serif" font-size="14.00">C002 : ε | 0</text>
</g>
<!-- S8_1&#45;&gt;S8_1 -->
<g id="edge12" class="edge"><title>S8_1&#45;&gt;S8_1</title>
<path fill="none" stroke="black" d="M165.077,-539.784C162.293,-564.903 163.601,-594 169,-594 173.682,-594 175.288,-572.119 173.816,-549.926"/>
<polygon fill="black" stroke="black" points="177.287,-549.439 172.923,-539.784 170.314,-550.053 177.287,-549.439"/>
<text text-anchor="middle" x="169" y="-597.8" font-family="Times New Roman,serif" font-size="14.00">C005 : ε | 0</text>
</g>
<!-- S8_1&#45;&gt;S8_1 -->
<g id="edge13" class="edge"><title>S8_1&#45;&gt;S8_1</title>
<path fill="none" stroke="black" d="M164.453,-539.714C159.877,-571.815 161.393,-612 169,-612 175.835,-612 177.752,-579.563 174.752,-549.694"/>
<polygon fill="black" stroke="black" points="178.221,-549.222 173.547,-539.714 171.271,-550.062 178.221,-549.222"/>
<text text-anchor="middle" x="169" y="-615.8" font-family="Times New Roman,serif" font-size="14.00">C010 : ε | 0</text>
</g>
<!-- S8_1&#45;&gt;S8_1 -->
<g id="edge14" class="edge"><title>S8_1&#45;&gt;S8_1</title>
<path fill="none" stroke="black" d="M164.021,-539.442C157.46,-578.31 159.12,-630 169,-630 178.031,-630 180.194,-586.813 175.488,-549.706"/>
<polygon fill="black" stroke="black" points="178.897,-548.826 173.979,-539.442 171.971,-549.845 178.897,-548.826"/>
<text text-anchor="middle" x="169" y="-633.8" font-family="Times New Roman,serif" font-size="14.00">C020 : ε | 0</text>
</g>
<!-- S8_1&#45;&gt;S8_1 -->
<g id="edge15" class="edge"><title>S8_1&#45;&gt;S8_1</title>
<path fill="none" stroke="black" d="M163.655,-539.424C155.056,-584.864 156.837,-648 169,-648 180.284,-648 182.633,-593.66 176.047,-549.522"/>
<polygon fill="black" stroke="black" points="179.458,-548.703 174.345,-539.424 172.555,-549.866 179.458,-548.703"/>
<text text-anchor="middle" x="169" y="-651.8" font-family="Times New Roman,serif" font-size="14.00">C050 : ε | 0</text>
</g>
<!-- S8_1&#45;&gt;S8_1 -->
<g id="edge16" class="edge"><title>S8_1&#45;&gt;S8_1</title>
<path fill="none" stroke="black" d="M163.327,-539.57C152.66,-591.467 154.551,-666 169,-666 182.546,-666 185.055,-600.492 176.526,-549.542"/>
<polygon fill="black" stroke="black" points="179.941,-548.762 174.673,-539.57 173.058,-550.041 179.941,-548.762"/>
<text text-anchor="middle" x="169" y="-669.8" font-family="Times New Roman,serif" font-size="14.00">C100 : ε | 0</text>
</g>
<!-- S8_1&#45;&gt;S8_1 -->
<g id="edge17" class="edge"><title>S8_1&#45;&gt;S8_1</title>
<path fill="none" stroke="black" d="M163.103,-539.466C150.261,-597.751 152.227,-684 169,-684 184.823,-684 187.469,-607.245 176.937,-549.618"/>
<polygon fill="black" stroke="black" points="180.298,-548.58 174.897,-539.466 173.435,-549.959 180.298,-548.58"/>
<text text-anchor="middle" x="169" y="-687.8" font-family="Times New Roman,serif" font-size="14.00">C200 : ε | 0</text>
</g>
</g>
</svg>
